# xmcd CD database file
#
# Track frame offsets:
#	150
#	23816
#	46094
#	60959
#	84909
#	101750
#	117429
#	135911
#	153402
#	179163
#	196620
#	219821
#
# Disc length: 3198 seconds
#
# Revision: 3
# Processed by: cddbd v1.5.1PL2 Copyright (c) Steve Scherf et al.
# Submitted via: CDex 1.70beta2
#
DISCID=8f0c7c0c
DTITLE=Nicole - Night Tree
DYEAR=2003
DGENRE=New Age
TTITLE0=Night Tree
TTITLE1=Spirit Riders
TTITLE2=Sunflake Children
TTITLE3=Liquid Dusk
TTITLE4=Shadow Whispers
TTITLE5=Saddend Rain
TTITLE6=Lakota Sunrise
TTITLE7=We Creatures
TTITLE8=Transparent
TTITLE9=Cool Fire
TTITLE10=Crossing the Waters
TTITLE11=Clarity
EXTD=YEAR: 2003
EXTT0=
EXTT1=
EXTT2=
EXTT3=
EXTT4=
EXTT5=
EXTT6=
EXTT7=
EXTT8=
EXTT9=
EXTT10=
EXTT11=
PLAYORDER=
